<svg width="91" height="91" viewBox="0 0 91 91" fill="none" xmlns="http://www.w3.org/2000/svg">
<g filter="url(#filter0_d_548_818)">
<rect x="11.5996" y="6.6001" width="67" height="67" rx="33.5" fill="#007AFF"/>
<path d="M40.468 39.9335C41.197 39.3273 41.9324 39.3273 42.679 39.9511L42.8513 40.1074L50.8051 48.0613L50.9551 48.1937C51.262 48.4316 51.6452 48.5494 52.0328 48.5249C52.4204 48.5005 52.7857 48.3355 53.0604 48.0608C53.335 47.7862 53.5 47.4209 53.5244 47.0333C53.5489 46.6457 53.4311 46.2625 53.1932 45.9556L53.0608 45.8056L50.9997 43.743L51.4655 43.2756L51.6346 43.124C52.3637 42.5178 53.0991 42.5178 53.8456 43.1416L54.0179 43.2979L61.4741 50.7556C61.323 52.2747 60.6324 53.6893 59.5275 54.7427C58.4226 55.7961 56.9766 56.4185 55.452 56.4969L55.1234 56.5049H35.9806C34.3979 56.5048 32.8718 55.9165 31.6986 54.8544C30.5253 53.7923 29.7886 52.332 29.6315 50.7572L40.2989 40.0851L40.468 39.9335ZM55.1234 24.6001C56.7605 24.6001 58.335 25.2293 59.5212 26.3576C60.7074 27.4859 61.4145 29.0269 61.4964 30.662L61.5044 30.9811V46.2714L56.2513 41.0199L56.012 40.8013C54.0083 39.0546 51.4655 39.0514 49.4779 40.7742L49.2322 40.9976L48.7425 41.4857L45.0846 37.8294L44.8453 37.6109C42.8417 35.8641 40.2989 35.8609 38.3112 37.5837L38.0655 37.8071L29.5996 46.2714V30.9811C29.5996 29.3439 30.2288 27.7695 31.3571 26.5833C32.4854 25.3971 34.0265 24.6899 35.6615 24.6081L35.9806 24.6001H55.1234ZM50.3537 32.5763L50.1511 32.5875C49.7633 32.6336 49.406 32.8203 49.1467 33.1122C48.8874 33.4042 48.7442 33.7811 48.7442 34.1715C48.7442 34.562 48.8874 34.9389 49.1467 35.2308C49.406 35.5228 49.7633 35.7095 50.1511 35.7556L50.3377 35.7668L50.5403 35.7556C50.928 35.7095 51.2854 35.5228 51.5446 35.2308C51.8039 34.9389 51.9471 34.562 51.9471 34.1715C51.9471 33.7811 51.8039 33.4042 51.5446 33.1122C51.2854 32.8203 50.928 32.6336 50.5403 32.5875L50.3537 32.5763Z" fill="white"/>
</g>
<defs>
<filter id="filter0_d_548_818" x="-0.000391006" y="9.72748e-05" width="90.2" height="90.2" filterUnits="userSpaceOnUse" color-interpolation-filters="sRGB">
<feFlood flood-opacity="0" result="BackgroundImageFix"/>
<feColorMatrix in="SourceAlpha" type="matrix" values="0 0 0 0 0 0 0 0 0 0 0 0 0 0 0 0 0 0 127 0" result="hardAlpha"/>
<feOffset dy="5"/>
<feGaussianBlur stdDeviation="5.8"/>
<feComposite in2="hardAlpha" operator="out"/>
<feColorMatrix type="matrix" values="0 0 0 0 0.322115 0 0 0 0 0.322115 0 0 0 0 0.322115 0 0 0 0.2 0"/>
<feBlend mode="normal" in2="BackgroundImageFix" result="effect1_dropShadow_548_818"/>
<feBlend mode="normal" in="SourceGraphic" in2="effect1_dropShadow_548_818" result="shape"/>
</filter>
</defs>
</svg>
