<svg width="39" height="39" viewBox="0 0 39 39" fill="none" xmlns="http://www.w3.org/2000/svg">
<path d="M14.5109 18.9763C15.24 18.3701 15.9754 18.3701 16.7219 18.9938L16.8942 19.1501L24.8481 27.104L24.998 27.2364C25.305 27.4743 25.6882 27.5921 26.0758 27.5676C26.4634 27.5432 26.8287 27.3782 27.1033 27.1036C27.3779 26.829 27.5429 26.4636 27.5674 26.076C27.5918 25.6884 27.4741 25.3052 27.2362 24.9983L27.1037 24.8483L25.0427 22.7857L25.5085 22.3183L25.6776 22.1667C26.4066 21.5605 27.142 21.5605 27.8886 22.1843L28.0609 22.3406L35.517 29.7983C35.366 31.3174 34.6754 32.7321 33.5705 33.7855C32.4655 34.8389 31.0196 35.4612 29.495 35.5396L29.1664 35.5476H10.0235C8.44091 35.5475 6.9148 34.9593 5.74153 33.8971C4.56826 32.835 3.83156 31.3747 3.67448 29.7999L14.3418 19.1278L14.5109 18.9763ZM29.1664 3.64282C30.8035 3.64282 32.378 4.27204 33.5642 5.40033C34.7504 6.52863 35.4575 8.06967 35.5394 9.70473L35.5473 10.0238V25.3141L30.2942 20.0626L30.0549 19.8441C28.0513 18.0973 25.5085 18.0941 23.5208 19.8169L23.2752 20.0403L22.7854 20.5284L19.1276 16.8721L18.8883 16.6536C16.8847 14.9068 14.3418 14.9036 12.3542 16.6265L12.1085 16.8498L3.64258 25.3141V10.0238C3.64258 8.38667 4.2718 6.8122 5.40009 5.626C6.52838 4.43981 8.06943 3.73265 9.70448 3.6508L10.0235 3.64282H29.1664ZM24.3966 11.619L24.194 11.6302C23.8063 11.6763 23.449 11.863 23.1897 12.155C22.9304 12.4469 22.7872 12.8238 22.7872 13.2143C22.7872 13.6047 22.9304 13.9816 23.1897 14.2735C23.449 14.5655 23.8063 14.7522 24.194 14.7983L24.3807 14.8095L24.5833 14.7983C24.971 14.7522 25.3283 14.5655 25.5876 14.2735C25.8469 13.9816 25.9901 13.6047 25.9901 13.2143C25.9901 12.8238 25.8469 12.4469 25.5876 12.155C25.3283 11.863 24.971 11.6763 24.5833 11.6302L24.3966 11.619Z" fill="white"/>
</svg>
