<svg width="36" height="36" viewBox="0 0 36 36" fill="none" xmlns="http://www.w3.org/2000/svg">
<rect width="36" height="36" rx="18" fill="#C0DEFF"/>
<g clip-path="url(#clip0_628_459)">
<path fill-rule="evenodd" clip-rule="evenodd" d="M17.9998 8.35718C17.1795 8.3568 16.3671 8.5181 15.6092 8.83184C14.8513 9.14558 14.1626 9.60563 13.5826 10.1857C13.0025 10.7657 12.5425 11.4544 12.2287 12.2123C11.915 12.9703 11.7537 13.7826 11.7541 14.6029C11.7541 15.7815 11.5469 16.6786 11.2569 17.3586C11.1769 17.5486 11.0141 17.7129 10.6998 17.9158C10.5702 17.9952 10.4392 18.0724 10.3069 18.1472L10.1741 18.2243C9.96476 18.344 9.76164 18.4741 9.5655 18.6143C8.8255 19.1615 8.55407 20.0043 8.59121 20.7643C8.62692 21.5029 8.95835 22.2743 9.57692 22.74C9.61681 22.7708 9.6583 22.7994 9.70121 22.8258C9.80487 22.8922 9.91271 22.9518 10.0241 23.0043C10.3041 23.1386 10.7284 23.3015 11.3498 23.4586C12.5926 23.7729 14.6512 24.0715 17.9998 24.0715C21.3484 24.0715 23.4069 23.7729 24.6498 23.4586C25.2712 23.3015 25.6955 23.1386 25.9755 23.0043C26.1216 22.9354 26.2617 22.8541 26.3941 22.7615L26.4226 22.74C27.0412 22.2743 27.3726 21.5029 27.4084 20.7643C27.4455 20.0043 27.1741 19.1615 26.4341 18.6143C26.2379 18.4741 26.0348 18.344 25.8255 18.2243L25.6926 18.1472C25.5604 18.0725 25.4299 17.9949 25.3012 17.9143C24.9869 17.7143 24.8226 17.5486 24.7412 17.3586C24.6792 17.2105 24.6234 17.0599 24.5741 16.9072C24.3712 16.1215 24.2455 15.3786 24.2455 14.6029C24.2459 13.7826 24.0846 12.9703 23.7708 12.2123C23.4571 11.4544 22.997 10.7657 22.417 10.1857C21.837 9.60563 21.1483 9.14558 20.3904 8.83184C19.6324 8.5181 18.8201 8.3568 17.9998 8.35718Z" fill="#007AFF"/>
<path fill-rule="evenodd" clip-rule="evenodd" d="M15.5659 25.3357C15.6586 25.2264 15.782 25.1476 15.92 25.1094C16.0581 25.0712 16.2045 25.0754 16.3402 25.1214C16.703 25.2443 17.2373 25.3385 18.0002 25.3385C18.763 25.3385 19.2973 25.2443 19.6602 25.1214C19.7959 25.0754 19.9424 25.0713 20.0805 25.1097C20.2186 25.148 20.3419 25.227 20.4346 25.3364C20.5272 25.4458 20.5847 25.5806 20.5997 25.7231C20.6147 25.8656 20.5865 26.0094 20.5187 26.1357C20.2746 26.5914 19.9115 26.9723 19.4679 27.2379C19.0244 27.5035 18.5171 27.6437 18.0002 27.6437C17.4832 27.6437 16.9759 27.5035 16.5324 27.2379C16.0889 26.9723 15.7257 26.5914 15.4816 26.1357C15.4137 26.0093 15.3854 25.8654 15.4004 25.7227C15.4155 25.58 15.4731 25.4451 15.5659 25.3357Z" fill="#007AFF"/>
</g>
<defs>
<clipPath id="clip0_628_459">
<rect width="20" height="20" fill="white" transform="translate(8 8)"/>
</clipPath>
</defs>
</svg>
