<svg width="36" height="36" viewBox="0 0 36 36" fill="none" xmlns="http://www.w3.org/2000/svg">
<rect width="36" height="36" rx="18" fill="#C0DEFF"/>
<g clip-path="url(#clip0_628_460)">
<path d="M19.0784 8C19.3724 8 19.6354 8.183 19.7344 8.457L20.4404 10.414C20.693 10.4767 20.911 10.5407 21.0944 10.606C21.2944 10.6773 21.5544 10.7873 21.8744 10.936L23.5184 10.066C23.6525 9.99458 23.8062 9.96874 23.9563 9.99237C24.1064 10.016 24.2447 10.0878 24.3504 10.197L25.7964 11.692C25.9884 11.891 26.0424 12.182 25.9344 12.436L25.1634 14.243C25.2907 14.4777 25.3934 14.679 25.4714 14.847C25.5554 15.029 25.6594 15.2823 25.7834 15.607L27.5804 16.377C27.8504 16.492 28.0174 16.762 27.9994 17.051L27.8674 19.126C27.8583 19.2608 27.8099 19.39 27.7282 19.4975C27.6464 19.6051 27.5349 19.6863 27.4074 19.731L25.7054 20.336C25.6567 20.5707 25.6054 20.7727 25.5514 20.942C25.464 21.2044 25.3645 21.4627 25.2534 21.716L26.1084 23.606C26.1692 23.7387 26.1857 23.8875 26.1554 24.0303C26.1252 24.1731 26.0498 24.3024 25.9404 24.399L24.3144 25.851C24.2075 25.9466 24.0738 26.0071 23.9315 26.0243C23.7891 26.0414 23.6449 26.0145 23.5184 25.947L21.8424 25.059C21.5804 25.1984 21.3099 25.321 21.0324 25.426L20.3004 25.7L19.6504 27.5C19.6017 27.6315 19.5147 27.7454 19.4006 27.8269C19.2865 27.9084 19.1505 27.9537 19.0104 27.957L17.1104 28C16.9664 28.0033 16.8249 27.9622 16.7052 27.8822C16.5855 27.8022 16.4934 27.6873 16.4414 27.553L15.6754 25.526C15.4141 25.4365 15.1553 25.3398 14.8994 25.236C14.6901 25.1454 14.484 25.0477 14.2814 24.943L12.3814 25.755C12.2562 25.8087 12.1181 25.8247 11.984 25.801C11.8499 25.7774 11.7256 25.7152 11.6264 25.622L10.2204 24.303C10.1153 24.2055 10.0437 24.0773 10.0159 23.9366C9.98806 23.796 10.0054 23.6502 10.0654 23.52L10.8824 21.74C10.7741 21.529 10.6734 21.3142 10.5804 21.096C10.472 20.8288 10.372 20.5584 10.2804 20.285L8.49037 19.74C8.34487 19.696 8.21796 19.6052 8.12936 19.4817C8.04075 19.3582 7.99541 19.2089 8.00037 19.057L8.07037 17.136C8.07557 17.0107 8.11481 16.8892 8.18388 16.7846C8.25294 16.6799 8.34922 16.596 8.46237 16.542L10.3404 15.64C10.427 15.3213 10.5037 15.072 10.5704 14.892C10.6647 14.6503 10.7695 14.4127 10.8844 14.18L10.0704 12.46C10.0081 12.3295 9.98911 12.1825 10.0161 12.0405C10.0431 11.8984 10.1146 11.7686 10.2204 11.67L11.6244 10.344C11.7227 10.251 11.8458 10.1884 11.9789 10.1639C12.112 10.1394 12.2494 10.154 12.3744 10.206L14.2724 10.99C14.4817 10.8507 14.6724 10.736 14.8444 10.646C15.049 10.538 15.3237 10.4227 15.6684 10.3L16.3284 8.459C16.3777 8.32459 16.467 8.20853 16.5843 8.12645C16.7016 8.04438 16.8412 8.00025 16.9844 8H19.0784ZM18.0244 15.019C16.3574 15.019 15.0064 16.354 15.0064 18.002C15.0064 19.65 16.3574 20.986 18.0244 20.986C19.6914 20.986 21.0414 19.65 21.0414 18.002C21.0414 16.354 19.6914 15.019 18.0244 15.019Z" fill="#007AFF"/>
</g>
<defs>
<clipPath id="clip0_628_460">
<rect width="20" height="20" fill="white" transform="translate(8 8)"/>
</clipPath>
</defs>
</svg>
