<svg width="81" height="18" viewBox="0 0 81 18" fill="none" xmlns="http://www.w3.org/2000/svg">
<path d="M3.3125 13.21C2.67383 13.21 2.06445 13.1367 1.48438 12.9902C0.910156 12.8438 0.415039 12.6357 -0.000976562 12.3662V9.29004C0.467773 9.57715 1.01855 9.83203 1.65137 10.0547C2.29004 10.2773 2.87891 10.3887 3.41797 10.3887C3.63477 10.3887 3.8252 10.3652 3.98926 10.3184C4.15332 10.2715 4.29102 10.2041 4.40234 10.1162C4.51367 10.0283 4.5957 9.91992 4.64844 9.79102C4.70703 9.65625 4.73633 9.50684 4.73633 9.34277C4.73633 9.12598 4.67188 8.92383 4.54297 8.73633C4.41406 8.54883 4.23828 8.36426 4.01562 8.18262C3.79883 7.99512 3.55859 7.79297 3.29492 7.57617C2.90234 7.25391 2.55664 6.91699 2.25781 6.56543C1.96484 6.21387 1.73633 5.83008 1.57227 5.41406C1.41406 4.99219 1.33496 4.52051 1.33496 3.99902C1.33496 3.41895 1.44336 2.88574 1.66016 2.39941C1.87695 1.91309 2.18457 1.49121 2.58301 1.13379C2.9873 0.770508 3.46777 0.492188 4.02441 0.298828C4.58691 0.0996094 5.20801 0 5.8877 0C6.5791 0 7.24707 0.0820312 7.8916 0.246094C8.54199 0.410156 9.13379 0.641602 9.66699 0.94043L8.48047 3.55078C8.07031 3.3457 7.63965 3.16699 7.18848 3.01465C6.74316 2.85645 6.32129 2.77734 5.92285 2.77734C5.67676 2.77734 5.47754 2.80957 5.3252 2.87402C5.17285 2.93262 5.05566 3.01172 4.97363 3.11133C4.8916 3.20508 4.83301 3.30762 4.79785 3.41895C4.76855 3.53027 4.75391 3.63867 4.75391 3.74414C4.75391 3.92578 4.79199 4.10156 4.86816 4.27148C4.9502 4.43555 5.09375 4.62012 5.29883 4.8252C5.50391 5.02441 5.79395 5.26465 6.16895 5.5459C6.64355 5.89746 7.03027 6.25488 7.3291 6.61816C7.63379 6.98145 7.85645 7.36523 7.99707 7.76953C8.1377 8.16797 8.20801 8.60742 8.20801 9.08789C8.20801 9.72656 8.09961 10.3008 7.88281 10.8105C7.66602 11.3203 7.34961 11.7539 6.93359 12.1113C6.51758 12.4688 6.00488 12.7412 5.39551 12.9287C4.79199 13.1162 4.09766 13.21 3.3125 13.21ZM9.68457 13.0342L11.7852 3.07617H14.501L14.3955 4.46484H14.4658C14.6826 4.08984 14.9229 3.78809 15.1865 3.55957C15.4502 3.33105 15.7461 3.16406 16.0742 3.05859C16.4082 2.95312 16.7861 2.90039 17.208 2.90039C17.8291 2.90039 18.3301 3.0293 18.7109 3.28711C19.0977 3.54492 19.3818 3.8877 19.5635 4.31543C19.7451 4.74316 19.8359 5.21484 19.8359 5.73047C19.8359 6.05859 19.8154 6.39844 19.7744 6.75C19.7334 7.0957 19.6807 7.42676 19.6162 7.74316L18.5 13.0342H15.0986L16.2324 7.60254C16.2676 7.4502 16.3027 7.25684 16.3379 7.02246C16.373 6.78223 16.3906 6.55957 16.3906 6.35449C16.3906 6.10254 16.3262 5.91504 16.1973 5.79199C16.0684 5.66309 15.9131 5.59863 15.7314 5.59863C15.5088 5.59863 15.2949 5.69238 15.0898 5.87988C14.8906 6.06152 14.7061 6.34277 14.5361 6.72363C14.3721 7.09863 14.2285 7.58203 14.1055 8.17383L13.0859 13.0342H9.68457ZM24.248 13.21C23.7383 13.21 23.2666 13.0898 22.833 12.8496C22.4053 12.6094 22.0625 12.2139 21.8047 11.6631C21.5469 11.1064 21.418 10.3564 21.418 9.41309C21.418 8.92676 21.4736 8.39355 21.585 7.81348C21.7021 7.2334 21.875 6.65625 22.1035 6.08203C22.3379 5.50195 22.6309 4.97168 22.9824 4.49121C23.334 4.01074 23.7471 3.62695 24.2217 3.33984C24.7021 3.04688 25.2441 2.90039 25.8477 2.90039C26.2285 2.90039 26.5596 2.95898 26.8408 3.07617C27.1279 3.19336 27.377 3.35742 27.5879 3.56836C27.8047 3.77344 27.9922 4.01953 28.1504 4.30664H28.2207L28.6865 3.07617H31.4111L29.3018 13.0342H26.5859L26.6738 11.9531H26.6035C26.4277 12.1992 26.2314 12.416 26.0146 12.6035C25.7979 12.791 25.5459 12.9375 25.2588 13.043C24.9775 13.1543 24.6406 13.21 24.248 13.21ZM25.6455 10.4766C25.9033 10.4766 26.1406 10.3594 26.3574 10.125C26.5742 9.88477 26.7588 9.57715 26.9111 9.20215C27.0693 8.82715 27.1836 8.42578 27.2539 7.99805C27.2891 7.81641 27.3154 7.63477 27.333 7.45312C27.3506 7.26562 27.3594 7.08105 27.3594 6.89941C27.3594 6.51855 27.2979 6.21387 27.1748 5.98535C27.0576 5.75098 26.8789 5.63379 26.6387 5.63379C26.4512 5.63379 26.2695 5.7041 26.0938 5.84473C25.9238 5.97949 25.7656 6.16699 25.6191 6.40723C25.4727 6.6416 25.3438 6.91406 25.2324 7.22461C25.127 7.5293 25.042 7.85156 24.9775 8.19141C24.9189 8.53125 24.8896 8.87402 24.8896 9.21973C24.8896 9.62402 24.9512 9.93457 25.0742 10.1514C25.2031 10.3682 25.3936 10.4766 25.6455 10.4766ZM30.8926 17.3584L33.916 3.07617H36.6318L36.5264 4.19238H36.5967C36.7783 3.91113 36.9805 3.67383 37.2031 3.48047C37.4258 3.28711 37.6748 3.14355 37.9502 3.0498C38.2256 2.9502 38.5303 2.90039 38.8643 2.90039C39.4619 2.90039 39.9805 3.04395 40.4199 3.33105C40.8594 3.61816 41.1992 4.03711 41.4395 4.58789C41.6797 5.13281 41.7998 5.79492 41.7998 6.57422C41.7998 7.23047 41.7324 7.88086 41.5977 8.52539C41.4629 9.16406 41.2695 9.76758 41.0176 10.3359C40.7656 10.8984 40.4551 11.3965 40.0859 11.8301C39.7227 12.2578 39.3096 12.5947 38.8467 12.8408C38.3896 13.0869 37.8857 13.21 37.335 13.21C37.0361 13.21 36.7607 13.1572 36.5088 13.0518C36.2627 12.9463 36.04 12.7998 35.8408 12.6123C35.6416 12.4189 35.4629 12.1934 35.3047 11.9355H35.2344C35.1934 12.4043 35.1406 12.8701 35.0762 13.333C35.0176 13.8018 34.9062 14.4229 34.7422 15.1963L34.2939 17.3584H30.8926ZM36.6494 10.4766C36.8369 10.4766 37.0156 10.4092 37.1855 10.2744C37.3555 10.1338 37.5078 9.94629 37.6426 9.71191C37.7832 9.47168 37.9033 9.19922 38.0029 8.89453C38.1084 8.58984 38.1875 8.26758 38.2402 7.92773C38.2988 7.58203 38.3281 7.23926 38.3281 6.89941C38.3281 6.48926 38.2637 6.17578 38.1348 5.95898C38.0117 5.74219 37.8242 5.63379 37.5723 5.63379C37.3965 5.63379 37.2324 5.68652 37.0801 5.79199C36.9336 5.89746 36.7959 6.04102 36.667 6.22266C36.5439 6.4043 36.4326 6.61523 36.333 6.85547C36.2334 7.08984 36.1484 7.3418 36.0781 7.61133C36.0137 7.88086 35.9639 8.15332 35.9287 8.42871C35.8936 8.69824 35.876 8.96191 35.876 9.21973C35.876 9.59473 35.9434 9.89941 36.0781 10.1338C36.2188 10.3623 36.4092 10.4766 36.6494 10.4766ZM42.8369 13.0342L45.5527 0.18457H50.1055V9.30762H50.1758L54.377 0.18457H59L56.249 13.0342H53.1641L54.1924 8.20898C54.3857 7.3125 54.5557 6.57715 54.7021 6.00293C54.8486 5.42871 54.9688 4.97168 55.0625 4.63184C55.1621 4.28613 55.2324 4.01367 55.2734 3.81445H55.2031L50.9668 13.0342H47.7148V3.81445H47.6445C47.5508 4.41797 47.46 4.99219 47.3721 5.53711C47.2842 6.07617 47.1992 6.57715 47.1172 7.04004C47.041 7.50293 46.9648 7.92773 46.8887 8.31445L45.8955 13.0342H42.8369ZM62.4805 13.21C61.9707 13.21 61.499 13.0898 61.0654 12.8496C60.6377 12.6094 60.2949 12.2139 60.0371 11.6631C59.7793 11.1064 59.6504 10.3564 59.6504 9.41309C59.6504 8.92676 59.7061 8.39355 59.8174 7.81348C59.9346 7.2334 60.1074 6.65625 60.3359 6.08203C60.5703 5.50195 60.8633 4.97168 61.2148 4.49121C61.5664 4.01074 61.9795 3.62695 62.4541 3.33984C62.9346 3.04688 63.4766 2.90039 64.0801 2.90039C64.4609 2.90039 64.792 2.95898 65.0732 3.07617C65.3604 3.19336 65.6094 3.35742 65.8203 3.56836C66.0371 3.77344 66.2246 4.01953 66.3828 4.30664H66.4531L66.9189 3.07617H69.6436L67.5342 13.0342H64.8184L64.9062 11.9531H64.8359C64.6602 12.1992 64.4639 12.416 64.2471 12.6035C64.0303 12.791 63.7783 12.9375 63.4912 13.043C63.21 13.1543 62.873 13.21 62.4805 13.21ZM63.8779 10.4766C64.1357 10.4766 64.373 10.3594 64.5898 10.125C64.8066 9.88477 64.9912 9.57715 65.1436 9.20215C65.3018 8.82715 65.416 8.42578 65.4863 7.99805C65.5215 7.81641 65.5479 7.63477 65.5654 7.45312C65.583 7.26562 65.5918 7.08105 65.5918 6.89941C65.5918 6.51855 65.5303 6.21387 65.4072 5.98535C65.29 5.75098 65.1113 5.63379 64.8711 5.63379C64.6836 5.63379 64.502 5.7041 64.3262 5.84473C64.1562 5.97949 63.998 6.16699 63.8516 6.40723C63.7051 6.6416 63.5762 6.91406 63.4648 7.22461C63.3594 7.5293 63.2744 7.85156 63.21 8.19141C63.1514 8.53125 63.1221 8.87402 63.1221 9.21973C63.1221 9.62402 63.1836 9.93457 63.3066 10.1514C63.4355 10.3682 63.626 10.4766 63.8779 10.4766ZM69.125 17.3584L72.1484 3.07617H74.8643L74.7588 4.19238H74.8291C75.0107 3.91113 75.2129 3.67383 75.4355 3.48047C75.6582 3.28711 75.9072 3.14355 76.1826 3.0498C76.458 2.9502 76.7627 2.90039 77.0967 2.90039C77.6943 2.90039 78.2129 3.04395 78.6523 3.33105C79.0918 3.61816 79.4316 4.03711 79.6719 4.58789C79.9121 5.13281 80.0322 5.79492 80.0322 6.57422C80.0322 7.23047 79.9648 7.88086 79.8301 8.52539C79.6953 9.16406 79.502 9.76758 79.25 10.3359C78.998 10.8984 78.6875 11.3965 78.3184 11.8301C77.9551 12.2578 77.542 12.5947 77.0791 12.8408C76.6221 13.0869 76.1182 13.21 75.5674 13.21C75.2686 13.21 74.9932 13.1572 74.7412 13.0518C74.4951 12.9463 74.2725 12.7998 74.0732 12.6123C73.874 12.4189 73.6953 12.1934 73.5371 11.9355H73.4668C73.4258 12.4043 73.373 12.8701 73.3086 13.333C73.25 13.8018 73.1387 14.4229 72.9746 15.1963L72.5264 17.3584H69.125ZM74.8818 10.4766C75.0693 10.4766 75.248 10.4092 75.418 10.2744C75.5879 10.1338 75.7402 9.94629 75.875 9.71191C76.0156 9.47168 76.1357 9.19922 76.2354 8.89453C76.3408 8.58984 76.4199 8.26758 76.4727 7.92773C76.5312 7.58203 76.5605 7.23926 76.5605 6.89941C76.5605 6.48926 76.4961 6.17578 76.3672 5.95898C76.2441 5.74219 76.0566 5.63379 75.8047 5.63379C75.6289 5.63379 75.4648 5.68652 75.3125 5.79199C75.166 5.89746 75.0283 6.04102 74.8994 6.22266C74.7764 6.4043 74.665 6.61523 74.5654 6.85547C74.4658 7.08984 74.3809 7.3418 74.3105 7.61133C74.2461 7.88086 74.1963 8.15332 74.1611 8.42871C74.126 8.69824 74.1084 8.96191 74.1084 9.21973C74.1084 9.59473 74.1758 9.89941 74.3105 10.1338C74.4512 10.3623 74.6416 10.4766 74.8818 10.4766Z" fill="#007AFF"/>
</svg>
