<svg width="19" height="20" viewBox="0 0 19 20" fill="none" xmlns="http://www.w3.org/2000/svg">
<path d="M1.11005 1.655C0.929054 2.015 0.840054 2.461 0.662054 3.351L0.0640543 6.341C-0.0206968 6.74867 -0.0213532 7.16936 0.0621253 7.5773C0.145604 7.98523 0.31146 8.37184 0.549542 8.71345C0.787624 9.05506 1.09292 9.34449 1.44674 9.56402C1.80057 9.78354 2.19547 9.92854 2.60728 9.99015C3.01909 10.0518 3.43914 10.0287 3.84171 9.92229C4.24429 9.81592 4.62092 9.6285 4.94854 9.37152C5.27617 9.11453 5.54791 8.79339 5.74711 8.42774C5.94631 8.06209 6.06879 7.65963 6.10705 7.245L6.17705 6.555C6.13916 6.99384 6.19322 7.43576 6.33578 7.85252C6.47834 8.26928 6.70628 8.65172 7.00501 8.97541C7.30375 9.29909 7.66672 9.5569 8.07074 9.73236C8.47475 9.90782 8.91093 9.99708 9.35139 9.99443C9.79186 9.99177 10.2269 9.89727 10.6288 9.71695C11.0307 9.53663 11.3905 9.27447 11.6853 8.94721C11.9801 8.61995 12.2034 8.23479 12.341 7.81634C12.4785 7.39789 12.5272 6.95535 12.4841 6.517L12.5571 7.245C12.5953 7.65963 12.7178 8.06209 12.917 8.42774C13.1162 8.79339 13.3879 9.11453 13.7156 9.37152C14.0432 9.6285 14.4198 9.81592 14.8224 9.92229C15.225 10.0287 15.645 10.0518 16.0568 9.99015C16.4686 9.92854 16.8635 9.78354 17.2174 9.56402C17.5712 9.34449 17.8765 9.05506 18.1146 8.71345C18.3526 8.37184 18.5185 7.98523 18.602 7.5773C18.6855 7.16936 18.6848 6.74867 18.6001 6.341L18.0021 3.351C17.8241 2.461 17.7351 2.016 17.5541 1.655C17.3655 1.27904 17.0999 0.946936 16.7747 0.680251C16.4494 0.413565 16.0717 0.218256 15.6661 0.107C15.2761 1.11759e-07 14.8221 0 13.9141 0H4.75005C3.84205 0 3.38805 1.11759e-07 2.99805 0.107C2.59242 0.218256 2.21472 0.413565 1.88946 0.680251C1.5642 0.946936 1.29865 1.27904 1.11005 1.655ZM15.6011 11.5C16.3824 11.502 17.1509 11.3018 17.8321 10.919V12C17.8321 15.771 17.8321 17.657 16.6601 18.828C15.7171 19.772 14.3121 19.955 11.8321 19.991V16.5C11.8321 15.565 11.8321 15.098 11.6311 14.75C11.4994 14.522 11.3101 14.3326 11.0821 14.201C10.7341 14 10.2671 14 9.33205 14C8.39705 14 7.93005 14 7.58205 14.201C7.35404 14.3326 7.1647 14.522 7.03305 14.75C6.83205 15.098 6.83205 15.565 6.83205 16.5V19.991C4.35205 19.955 2.94705 19.771 2.00405 18.828C0.832054 17.657 0.832054 15.771 0.832054 12V10.919C1.51347 11.302 2.28239 11.5021 3.06405 11.5C4.21969 11.5007 5.33231 11.0617 6.17605 10.272C7.03577 11.0643 8.16291 11.5029 9.33205 11.5C10.5012 11.5029 11.6283 11.0643 12.4881 10.272C13.3318 11.0617 14.4454 11.5007 15.6011 11.5Z" fill="#798DA2"/>
</svg>
