<svg width="24" height="24" viewBox="0 0 24 24" fill="none" xmlns="http://www.w3.org/2000/svg">
<g clip-path="url(#clip0_548_815)">
<path fill-rule="evenodd" clip-rule="evenodd" d="M6.25985 1.0559C6.67128 1.58048 6.97985 2.19419 7.14956 2.87648C7.83185 3.0479 8.44556 3.35476 8.97013 3.7679C9.84442 4.45362 9.84442 5.76505 8.97013 6.45248C8.44556 6.8639 7.83185 7.17076 7.14956 7.34219C6.97813 8.02448 6.67128 8.63819 6.25985 9.16276C6.10049 9.36688 5.8967 9.532 5.66396 9.64556C5.43123 9.75913 5.17567 9.81815 4.91671 9.81815C4.65774 9.81815 4.40218 9.75913 4.16945 9.64556C3.93671 9.532 3.73292 9.36688 3.57356 9.16276C3.15082 8.62613 2.84749 8.00545 2.68385 7.34219C2.02045 7.17804 1.39976 6.87412 0.863277 6.45076C0.65947 6.29138 0.494632 6.08768 0.381267 5.85511C0.267901 5.62254 0.208984 5.3672 0.208984 5.10848C0.208984 4.84975 0.267901 4.59441 0.381267 4.36184C0.494632 4.12927 0.65947 3.92557 0.863277 3.76619C1.39991 3.34344 2.02059 3.04011 2.68385 2.87648C2.85528 2.19419 3.16213 1.58048 3.57528 1.0559C3.73466 0.852097 3.93836 0.687259 4.17093 0.573894C4.4035 0.460528 4.65883 0.401611 4.91756 0.401611C5.17629 0.401611 5.43162 0.460528 5.66419 0.573894C5.89676 0.687259 6.10046 0.852097 6.25985 1.0559ZM18.1998 3.32733C17.985 3.05198 17.7103 2.82924 17.3964 2.67604C17.0826 2.52284 16.7379 2.44321 16.3887 2.44321C16.0395 2.44321 15.6948 2.52284 15.381 2.67604C15.0672 2.82924 14.7924 3.05198 14.5776 3.32733C13.8378 4.27116 13.3304 5.37577 13.0964 6.5519C11.9209 6.78616 10.8169 7.29353 9.87356 8.03305C9.59822 8.24787 9.37547 8.52264 9.22227 8.83648C9.06907 9.15032 8.98944 9.49496 8.98944 9.84419C8.98944 10.1934 9.06907 10.5381 9.22227 10.8519C9.37547 11.1657 9.59822 11.4405 9.87356 11.6553C10.7873 12.3753 11.8741 12.8896 13.0964 13.1365C13.3301 14.3122 13.8375 15.4163 14.5776 16.3593C15.505 17.5422 17.2724 17.5422 18.1998 16.3593C18.9399 15.4163 19.4473 14.3122 19.681 13.1365C20.8565 12.9022 21.9605 12.3949 22.9039 11.6553C23.1792 11.4405 23.4019 11.1657 23.5551 10.8519C23.7083 10.5381 23.788 10.1934 23.788 9.84419C23.788 9.49496 23.7083 9.15032 23.5551 8.83648C23.4019 8.52264 23.1792 8.24787 22.9039 8.03305C21.9605 7.29353 20.8565 6.78616 19.681 6.5519C19.4467 5.37637 18.9394 4.27238 18.1998 3.32905M7.98442 12.0239C7.79493 11.781 7.55254 11.5845 7.27569 11.4493C6.99883 11.3141 6.6948 11.2439 6.38671 11.2439C6.07862 11.2439 5.77458 11.3141 5.49773 11.4493C5.22087 11.5845 4.97848 11.781 4.78899 12.0239C4.20956 12.761 3.78785 13.6353 3.57356 14.609C2.63139 14.8121 1.74788 15.2272 0.990134 15.8228C0.746891 16.0122 0.550093 16.2547 0.414728 16.5317C0.279362 16.8087 0.209001 17.113 0.209001 17.4213C0.209001 17.7297 0.279362 18.0339 0.414728 18.3109C0.550093 18.588 0.746891 18.8304 0.990134 19.0199C1.72728 19.5993 2.59813 20.0193 3.57528 20.2336C3.78785 21.209 4.20956 22.0816 4.78899 22.8188C4.97848 23.0617 5.22087 23.2582 5.49773 23.3934C5.77458 23.5285 6.07862 23.5988 6.38671 23.5988C6.6948 23.5988 6.99883 23.5285 7.27569 23.3934C7.55254 23.2582 7.79493 23.0617 7.98442 22.8188C8.56385 22.0816 8.98556 21.209 9.19813 20.2336C10.1409 20.0308 11.025 19.6157 11.7833 19.0199C12.0265 18.8304 12.2233 18.588 12.3587 18.3109C12.494 18.0339 12.5644 17.7297 12.5644 17.4213C12.5644 17.113 12.494 16.8087 12.3587 16.5317C12.2233 16.2547 12.0265 16.0122 11.7833 15.8228C11.025 15.2269 10.1409 14.8118 9.19813 14.609C8.99534 13.6663 8.58025 12.7822 7.98442 12.0239Z" fill="#798DA2"/>
</g>
<defs>
<clipPath id="clip0_548_815">
<rect width="24" height="24" fill="white"/>
</clipPath>
</defs>
</svg>
